<?xml version="1.0" encoding="UTF-8"?>
<!DOCTYPE svg PUBLIC "-//W3C//DTD SVG 1.1//EN" "http://www.w3.org/Graphics/SVG/1.1/DTD/svg11.dtd">
<svg xmlns="http://www.w3.org/2000/svg" version="1.1" width="4167px" height="4167px" style="shape-rendering:geometricPrecision; text-rendering:geometricPrecision; image-rendering:optimizeQuality; fill-rule:evenodd; clip-rule:evenodd" xmlns:xlink="http://www.w3.org/1999/xlink">
<g><path style="opacity:0.997" fill="#e2e2e2" d="M 643.5,1215.5 C 645.332,1375.5 646.166,1535.83 646,1696.5C 743.983,1652.84 846.65,1630.17 954,1628.5C 1021.94,1628.02 1088.1,1638.52 1152.5,1660C 1268.45,1701.95 1352.62,1778.78 1405,1890.5C 1427.73,1941.03 1443.4,1993.69 1452,2048.5C 1471.26,2186.64 1472.6,2324.97 1456,2463.5C 1446.3,2548.27 1419.3,2626.94 1375,2699.5C 1307.44,2802.26 1213.94,2869.76 1094.5,2902C 1022.63,2920.63 949.63,2927.63 875.5,2923C 775.588,2918.44 679.922,2896.1 588.5,2856C 521.263,2825.31 456.763,2790.14 395,2750.5C 394.333,2254.83 394.333,1759.17 395,1263.5C 477.938,1247.54 560.771,1231.54 643.5,1215.5 Z M 900.5,1870.5 C 945.769,1867.69 990.436,1871.52 1034.5,1882C 1116.13,1905.63 1169.3,1958.13 1194,2039.5C 1202.79,2069.56 1208.12,2100.23 1210,2131.5C 1214.49,2223.51 1214.49,2315.51 1210,2407.5C 1191.81,2597.35 1087.31,2688.85 896.5,2682C 816.243,2675.58 740.577,2653.58 669.5,2616C 661.41,2611.21 653.576,2606.04 646,2600.5C 645.167,2381.17 645.333,2161.83 646.5,1942.5C 702.539,1908.43 763.206,1886.93 828.5,1878C 852.555,1874.56 876.555,1872.06 900.5,1870.5 Z"/></g>
<g><path style="opacity:0.997" fill="#e2e2e2" d="M 2123.5,1628.5 C 2197.09,1626.2 2269.09,1635.7 2339.5,1657C 2443.75,1691.34 2529.25,1751.84 2596,1838.5C 2642.29,1904.66 2670.95,1977.99 2682,2058.5C 2690.86,2128.62 2692.86,2198.96 2688,2269.5C 2685.64,2304.58 2682.48,2339.58 2678.5,2374.5C 2402.17,2374.5 2125.83,2374.5 1849.5,2374.5C 1850.11,2425.03 1860.61,2473.36 1881,2519.5C 1918,2593.49 1976.17,2642.65 2055.5,2667C 2104.6,2680.7 2154.6,2685.7 2205.5,2682C 2249.24,2680.32 2291.24,2670.99 2331.5,2654C 2371.29,2635.21 2404.12,2608.05 2430,2572.5C 2440.35,2557.13 2450.18,2541.47 2459.5,2525.5C 2529.18,2559 2598.51,2593 2667.5,2627.5C 2638.98,2685.87 2600.98,2737.37 2553.5,2782C 2474.5,2856.32 2380.84,2900.99 2272.5,2916C 2178.78,2929.86 2085.78,2926.19 1993.5,2905C 1846.43,2866.6 1735.6,2781.43 1661,2649.5C 1626.71,2584.34 1606.71,2515.01 1601,2441.5C 1593.14,2321.44 1593.8,2201.44 1603,2081.5C 1624.1,1908.65 1710.27,1780.15 1861.5,1696C 1943.74,1653.44 2031.07,1630.94 2123.5,1628.5 Z M 2120.5,1870.5 C 2176.32,1867.07 2230.32,1875.24 2282.5,1895C 2360.2,1928.71 2410.03,1986.54 2432,2068.5C 2440.32,2103.36 2444.49,2138.69 2444.5,2174.5C 2246.17,2175.5 2047.83,2175.83 1849.5,2175.5C 1848.57,2115.32 1862.07,2058.65 1890,2005.5C 1930.28,1938.56 1988.78,1896.39 2065.5,1879C 2083.81,1875.08 2102.14,1872.24 2120.5,1870.5 Z"/></g>
<g><path style="opacity:0.998" fill="#a9a9a9" d="M 2835.5,2668.5 C 2907.17,2668.5 2978.83,2668.5 3050.5,2668.5C 3050.5,2740.17 3050.5,2811.83 3050.5,2883.5C 3014.83,2883.5 2979.17,2883.5 2943.5,2883.5C 2943.83,2905.51 2943.5,2927.51 2942.5,2949.5C 2907.08,2927.71 2871.58,2906.04 2836,2884.5C 2835.5,2812.5 2835.33,2740.5 2835.5,2668.5 Z"/></g>
<g><path style="opacity:0.994" fill="#8c8c8c" d="M 3195.5,2668.5 C 3267.5,2668.5 3339.5,2668.5 3411.5,2668.5C 3411.5,2740.17 3411.5,2811.83 3411.5,2883.5C 3339.5,2883.5 3267.5,2883.5 3195.5,2883.5C 3195.5,2811.83 3195.5,2740.17 3195.5,2668.5 Z"/></g>
<g><path style="opacity:0.992" fill="#aeafae" d="M 3555.5,2668.5 C 3627.5,2668.5 3699.5,2668.5 3771.5,2668.5C 3771.83,2740.5 3771.5,2812.5 3770.5,2884.5C 3734.73,2906.71 3698.73,2928.38 3662.5,2949.5C 3662.5,2927.5 3662.5,2905.5 3662.5,2883.5C 3626.83,2883.5 3591.17,2883.5 3555.5,2883.5C 3555.5,2811.83 3555.5,2740.17 3555.5,2668.5 Z"/></g>
</svg>
