<?xml version="1.0" encoding="UTF-8"?>
<!DOCTYPE svg PUBLIC "-//W3C//DTD SVG 1.1//EN" "http://www.w3.org/Graphics/SVG/1.1/DTD/svg11.dtd">
<svg xmlns="http://www.w3.org/2000/svg" version="1.1" width="1379px" height="767px" style="shape-rendering:geometricPrecision; text-rendering:geometricPrecision; image-rendering:optimizeQuality; fill-rule:evenodd; clip-rule:evenodd" xmlns:xlink="http://www.w3.org/1999/xlink">
<g><path style="opacity:0.997" fill="#fefefe" d="M 211.5,-0.5 C 224.833,-0.5 238.167,-0.5 251.5,-0.5C 282.565,3.24278 311.898,12.7428 339.5,28C 365.061,42.6076 390.394,57.4409 415.5,72.5C 277.647,160.351 139.813,248.351 2,336.5C 1.80192,334.618 1.30192,332.952 0.5,331.5C 0.784479,329.585 0.451145,327.919 -0.5,326.5C -0.5,307.833 -0.5,289.167 -0.5,270.5C 3.24113,216.549 17.7411,165.549 43,117.5C 71.5253,65.977 113.359,29.8104 168.5,9C 182.7,4.59613 197.033,1.42946 211.5,-0.5 Z"/></g>
<g><path style="opacity:0.999" fill="#f6f6f6" d="M 415.5,72.5 C 422.806,76.4877 430.14,80.4877 437.5,84.5C 293.776,177.544 149.443,269.877 4.5,361.5C 2.70148,351.576 1.36814,341.576 0.5,331.5C 1.30192,332.952 1.80192,334.618 2,336.5C 139.813,248.351 277.647,160.351 415.5,72.5 Z"/></g>
<g><path style="opacity:0.996" fill="#868686" d="M 1075.5,72.5 C 961.5,143.833 847.5,215.167 733.5,286.5C 728.5,286.5 723.5,286.5 718.5,286.5C 718.389,285.883 718.056,285.383 717.5,285C 829.006,215.637 940.339,146.137 1051.5,76.5C 1059.29,74.1476 1067.29,72.8142 1075.5,72.5 Z"/></g>
<g><path style="opacity:0.998" fill="#8c8c8c" d="M 1075.5,72.5 C 1080.17,72.5 1084.83,72.5 1089.5,72.5C 1089.06,74.0744 1088.06,75.2411 1086.5,76C 973.327,146.363 860.327,216.863 747.5,287.5C 742.848,287.002 738.181,286.669 733.5,286.5C 847.5,215.167 961.5,143.833 1075.5,72.5 Z"/></g>
<g><path style="opacity:0.997" fill="#929292" d="M 1089.5,72.5 C 1095.42,72.216 1101.08,72.8827 1106.5,74.5C 1102.87,75.2796 1099.54,76.7796 1096.5,79C 984.327,149.03 872.327,219.196 760.5,289.5C 756.127,289.018 751.794,288.352 747.5,287.5C 860.327,216.863 973.327,146.363 1086.5,76C 1088.06,75.2411 1089.06,74.0744 1089.5,72.5 Z"/></g>
<g><path style="opacity:0.998" fill="#999999" d="M 1106.5,74.5 C 1110.84,74.5841 1114.84,75.5841 1118.5,77.5C 1003.23,148.778 888.229,220.445 773.5,292.5C 769.106,291.651 764.772,290.651 760.5,289.5C 872.327,219.196 984.327,149.03 1096.5,79C 1099.54,76.7796 1102.87,75.2796 1106.5,74.5 Z"/></g>
<g><path style="opacity:0.992" fill="#808080" d="M 1051.5,76.5 C 940.339,146.137 829.006,215.637 717.5,285C 718.056,285.383 718.389,285.883 718.5,286.5C 710.79,286.727 703.123,287.394 695.5,288.5C 778.766,235.524 862.432,183.024 946.5,131C 948.635,130.124 949.969,128.624 950.5,126.5C 973.952,112.268 997.952,98.7676 1022.5,86C 1031.88,81.9278 1041.55,78.7612 1051.5,76.5 Z"/></g>
<g><path style="opacity:0.998" fill="#9f9f9f" d="M 1118.5,77.5 C 1121.97,78.1009 1125.3,79.1009 1128.5,80.5C 1014.03,152.106 899.36,223.606 784.5,295C 785.056,295.383 785.389,295.883 785.5,296.5C 781.341,295.336 777.341,294.003 773.5,292.5C 888.229,220.445 1003.23,148.778 1118.5,77.5 Z"/></g>
<g><path style="opacity:0.998" fill="#a5a5a5" d="M 1128.5,80.5 C 1131.89,81.6154 1134.89,83.2821 1137.5,85.5C 1023.5,157.167 909.5,228.833 795.5,300.5C 792.167,299.167 788.833,297.833 785.5,296.5C 785.389,295.883 785.056,295.383 784.5,295C 899.36,223.606 1014.03,152.106 1128.5,80.5 Z"/></g>
<g><path style="opacity:0.999" fill="#f0f0f0" d="M 437.5,84.5 C 444.202,88.5146 450.869,92.5146 457.5,96.5C 308.044,191.734 158.377,286.734 8.5,381.5C 7.16667,374.833 5.83333,368.167 4.5,361.5C 149.443,269.877 293.776,177.544 437.5,84.5 Z"/></g>
<g><path style="opacity:0.998" fill="#ababab" d="M 1137.5,85.5 C 1140.99,86.4097 1143.99,88.0764 1146.5,90.5C 1032.24,161.137 918.572,232.471 805.5,304.5C 802.162,303.164 798.829,301.831 795.5,300.5C 909.5,228.833 1023.5,157.167 1137.5,85.5 Z"/></g>
<g><path style="opacity:0.998" fill="#b1b1b1" d="M 1146.5,90.5 C 1149.47,92.1468 1152.14,94.1468 1154.5,96.5C 1041.52,167.14 928.517,237.807 815.5,308.5C 815.863,309.183 816.196,309.85 816.5,310.5C 812.665,308.75 808.999,306.75 805.5,304.5C 918.572,232.471 1032.24,161.137 1146.5,90.5 Z"/></g>
<g><path style="opacity:0.999" fill="#eaeaea" d="M 457.5,96.5 C 464.534,100.012 471.201,104.012 477.5,108.5C 478.058,109.79 479.058,110.623 480.5,111C 326.249,209.042 172.082,307.208 18,405.5C 17.3292,404.748 16.4959,404.414 15.5,404.5C 13.0084,396.863 10.675,389.196 8.5,381.5C 158.377,286.734 308.044,191.734 457.5,96.5 Z"/></g>
<g><path style="opacity:0.999" fill="#b8b8b8" d="M 1154.5,96.5 C 1157.43,97.7997 1159.77,99.7997 1161.5,102.5C 1048.72,172.394 936.055,242.561 823.5,313C 824.252,313.671 824.586,314.504 824.5,315.5C 821.797,313.819 819.131,312.153 816.5,310.5C 816.196,309.85 815.863,309.183 815.5,308.5C 928.517,237.807 1041.52,167.14 1154.5,96.5 Z"/></g>
<g><path style="opacity:0.999" fill="#bebebe" d="M 1161.5,102.5 C 1164.17,104.5 1166.5,106.833 1168.5,109.5C 1055.99,179.253 943.657,249.253 831.5,319.5C 829.167,318.167 826.833,316.833 824.5,315.5C 824.586,314.504 824.252,313.671 823.5,313C 936.055,242.561 1048.72,172.394 1161.5,102.5 Z"/></g>
<g><path style="opacity:0.998" fill="#c4c4c4" d="M 1168.5,109.5 C 1170.47,111.808 1172.47,114.142 1174.5,116.5C 1170.87,117.28 1167.54,118.78 1164.5,121C 1056.27,188.608 948.267,256.441 840.5,324.5C 837.339,323.087 834.339,321.42 831.5,319.5C 943.657,249.253 1055.99,179.253 1168.5,109.5 Z"/></g>
<g><path style="opacity:0.999" fill="#e3e3e3" d="M 477.5,108.5 C 486.738,113.071 495.738,118.071 504.5,123.5C 504.063,125.074 503.063,126.241 501.5,127C 343.138,227.844 184.805,328.677 26.5,429.5C 22.2673,421.488 18.6006,413.154 15.5,404.5C 16.4959,404.414 17.3292,404.748 18,405.5C 172.082,307.208 326.249,209.042 480.5,111C 479.058,110.623 478.058,109.79 477.5,108.5 Z"/></g>
<g><path style="opacity:0.998" fill="#cacaca" d="M 1174.5,116.5 C 1176.68,118.858 1178.34,121.525 1179.5,124.5C 1177.69,124.491 1176.02,124.991 1174.5,126C 1067,193.584 959.335,260.917 851.5,328C 850.748,328.671 850.414,329.504 850.5,330.5C 847.167,328.5 843.833,326.5 840.5,324.5C 948.267,256.441 1056.27,188.608 1164.5,121C 1167.54,118.78 1170.87,117.28 1174.5,116.5 Z"/></g>
<g><path style="opacity:0.999" fill="#dddddd" d="M 504.5,123.5 C 513.118,128.137 521.451,133.137 529.5,138.5C 369.05,240.443 208.717,342.61 48.5,445C 45.0478,447.393 41.3811,449.226 37.5,450.5C 33.0558,443.946 29.3891,436.946 26.5,429.5C 184.805,328.677 343.138,227.844 501.5,127C 503.063,126.241 504.063,125.074 504.5,123.5 Z"/></g>
<g><path style="opacity:0.999" fill="#d1d1d1" d="M 1179.5,124.5 C 1181.4,126.619 1183.07,128.953 1184.5,131.5C 1075.56,198.788 967.228,266.788 859.5,335.5C 856.339,334.087 853.339,332.42 850.5,330.5C 850.414,329.504 850.748,328.671 851.5,328C 959.335,260.917 1067,193.584 1174.5,126C 1176.02,124.991 1177.69,124.491 1179.5,124.5 Z"/></g>
<g><path style="opacity:0.973" fill="#797979" d="M 950.5,126.5 C 949.969,128.624 948.635,130.124 946.5,131C 862.432,183.024 778.766,235.524 695.5,288.5C 676.228,291.702 657.894,297.702 640.5,306.5C 711.833,264.833 783.167,223.167 854.5,181.5C 886.465,163.182 918.465,144.849 950.5,126.5 Z"/></g>
<g><path style="opacity:0.998" fill="#d7d7d7" d="M 1184.5,131.5 C 1185.77,133.713 1186.77,136.046 1187.5,138.5C 1081.07,205.559 974.399,272.392 867.5,339C 868.056,339.383 868.389,339.883 868.5,340.5C 865.366,339.099 862.366,337.432 859.5,335.5C 967.228,266.788 1075.56,198.788 1184.5,131.5 Z"/></g>
<g><path style="opacity:0.999" fill="#d7d7d7" d="M 529.5,138.5 C 536.332,141.412 542.666,145.079 548.5,149.5C 384.359,253.74 220.359,358.24 56.5,463C 53.89,464.481 51.2234,465.648 48.5,466.5C 44.8333,461.167 41.1667,455.833 37.5,450.5C 41.3811,449.226 45.0478,447.393 48.5,445C 208.717,342.61 369.05,240.443 529.5,138.5 Z"/></g>
<g><path style="opacity:0.998" fill="#dddddd" d="M 1187.5,138.5 C 1189.07,140.635 1190.4,142.968 1191.5,145.5C 1190.33,147.441 1188.66,148.941 1186.5,150C 1082.43,214.358 978.766,279.191 875.5,344.5C 872.996,343.416 870.663,342.083 868.5,340.5C 868.389,339.883 868.056,339.383 867.5,339C 974.399,272.392 1081.07,205.559 1187.5,138.5 Z"/></g>
<g><path style="opacity:0.997" fill="#e3e3e3" d="M 1191.5,145.5 C 1192.83,148.833 1194.17,152.167 1195.5,155.5C 1094.05,218.442 992.718,281.609 891.5,345C 888.957,346.382 886.957,348.215 885.5,350.5C 881.882,348.863 878.549,346.863 875.5,344.5C 978.766,279.191 1082.43,214.358 1186.5,150C 1188.66,148.941 1190.33,147.441 1191.5,145.5 Z"/></g>
<g><path style="opacity:0.999" fill="#d1d1d1" d="M 548.5,149.5 C 555.996,152.745 562.996,156.745 569.5,161.5C 569.953,162.458 570.619,163.292 571.5,164C 402.763,271.025 234.43,378.525 66.5,486.5C 60.0413,480.252 54.0413,473.585 48.5,466.5C 51.2234,465.648 53.89,464.481 56.5,463C 220.359,358.24 384.359,253.74 548.5,149.5 Z"/></g>
<g><path style="opacity:0.998" fill="#e9e9e9" d="M 1195.5,155.5 C 1196.7,158.421 1197.7,161.421 1198.5,164.5C 1195.78,165.352 1193.11,166.519 1190.5,168C 1093,229.25 995.335,290.25 897.5,351C 895.365,351.876 894.031,353.376 893.5,355.5C 890.833,353.833 888.167,352.167 885.5,350.5C 886.957,348.215 888.957,346.382 891.5,345C 992.718,281.609 1094.05,218.442 1195.5,155.5 Z"/></g>
<g><path style="opacity:0.998" fill="#cacaca" d="M 569.5,161.5 C 578.501,165.998 587.168,170.998 595.5,176.5C 595.063,178.074 594.063,179.241 592.5,180C 423.472,287.511 254.472,395.011 85.5,502.5C 78.5557,497.889 72.2224,492.555 66.5,486.5C 234.43,378.525 402.763,271.025 571.5,164C 570.619,163.292 569.953,162.458 569.5,161.5 Z"/></g>
<g><path style="opacity:0.998" fill="#f0f0f0" d="M 1198.5,164.5 C 1199.37,167.112 1200.04,169.779 1200.5,172.5C 1103.23,234.142 1005.57,295.309 907.5,356C 905.382,357.049 903.716,358.549 902.5,360.5C 899.661,358.58 896.661,356.913 893.5,355.5C 894.031,353.376 895.365,351.876 897.5,351C 995.335,290.25 1093,229.25 1190.5,168C 1193.11,166.519 1195.78,165.352 1198.5,164.5 Z"/></g>
<g><path style="opacity:0.998" fill="#f6f6f6" d="M 1200.5,172.5 C 1201.79,175.679 1202.46,179.012 1202.5,182.5C 1104.9,242.778 1007.56,303.445 910.5,364.5C 907.605,363.601 904.938,362.267 902.5,360.5C 903.716,358.549 905.382,357.049 907.5,356C 1005.57,295.309 1103.23,234.142 1200.5,172.5 Z"/></g>
<g><path style="opacity:0.999" fill="#c4c4c4" d="M 595.5,176.5 C 603.358,179.93 611.024,183.597 618.5,187.5C 449.008,296.137 279.341,404.637 109.5,513C 107.975,514.009 106.308,514.509 104.5,514.5C 97.6277,511.283 91.2944,507.283 85.5,502.5C 254.472,395.011 423.472,287.511 592.5,180C 594.063,179.241 595.063,178.074 595.5,176.5 Z"/></g>
<g><path style="opacity:0.996" fill="#fefefe" d="M 1202.5,182.5 C 1213.12,239.668 1205.29,294.334 1179,346.5C 1161.09,378.746 1135.26,402.246 1101.5,417C 1063.7,429.938 1026.7,427.938 990.5,411C 963.607,395.726 936.94,380.226 910.5,364.5C 1007.56,303.445 1104.9,242.778 1202.5,182.5 Z"/></g>
<g><path style="opacity:0.999" fill="#bebebe" d="M 618.5,187.5 C 627.505,190.835 636.505,194.168 645.5,197.5C 490.674,296.804 335.674,395.97 180.5,495C 163.944,505.44 147.278,515.607 130.5,525.5C 121.116,523.377 112.449,519.71 104.5,514.5C 106.308,514.509 107.975,514.009 109.5,513C 279.341,404.637 449.008,296.137 618.5,187.5 Z"/></g>
<g><path style="opacity:0.997" fill="#b0b0b0" d="M 854.5,181.5 C 783.167,223.167 711.833,264.833 640.5,306.5C 529.563,370.64 418.563,434.807 307.5,499C 279.04,515.153 248.707,526.153 216.5,532C 197.697,534.985 179.031,535.152 160.5,532.5C 332.045,423.902 503.045,314.568 673.5,204.5C 736.398,216.919 796.731,209.252 854.5,181.5 Z"/></g>
<g><path style="opacity:0.999" fill="#b8b8b8" d="M 645.5,197.5 C 654.75,200.146 664.083,202.479 673.5,204.5C 503.045,314.568 332.045,423.902 160.5,532.5C 150.03,531.714 140.03,529.381 130.5,525.5C 147.278,515.607 163.944,505.44 180.5,495C 335.674,395.97 490.674,296.804 645.5,197.5 Z"/></g>
<g><path style="opacity:0.966" fill="#fefefe" d="M 829.5,569.5 C 837.174,569.334 844.841,569.5 852.5,570C 853.308,570.308 853.975,570.808 854.5,571.5C 856.943,580.106 857.11,588.773 855,597.5C 854.167,598.333 853.333,599.167 852.5,600C 844.833,600.667 837.167,600.667 829.5,600C 828.584,599.626 827.75,599.126 827,598.5C 825.396,590.27 825.063,581.937 826,573.5C 826.69,571.65 827.856,570.316 829.5,569.5 Z"/></g>
<g><path style="opacity:0.97" fill="#fefefe" d="M 746.5,766.5 C 737.167,766.5 727.833,766.5 718.5,766.5C 704.002,764.284 690.336,759.45 677.5,752C 674.732,750.238 673.232,747.738 673,744.5C 672.333,688.167 672.333,631.833 673,575.5C 673.273,573.671 674.107,572.171 675.5,571C 682.833,570.333 690.167,570.333 697.5,571C 698.333,571.833 699.167,572.667 700,573.5C 700.333,591.167 700.667,608.833 701,626.5C 720.862,617.608 741.029,616.774 761.5,624C 783.144,635.093 794.31,652.926 795,677.5C 796.008,692.917 795.342,708.25 793,723.5C 786.248,747.423 770.748,761.756 746.5,766.5 Z M 721.5,646.5 C 755.313,643.481 770.647,658.981 767.5,693C 769.872,709.225 765.205,722.892 753.5,734C 735.645,741.833 718.145,740.999 701,731.5C 700.333,705.833 700.333,680.167 701,654.5C 707.409,650.534 714.242,647.868 721.5,646.5 Z"/></g>
<g><path style="opacity:0.976" fill="#fefefe" d="M 346.5,618.5 C 362.552,618.005 376.552,623.005 388.5,633.5C 409.832,618.85 432.832,615.35 457.5,623C 473.842,630.475 482.675,643.309 484,661.5C 484.667,694.5 484.667,727.5 484,760.5C 483.626,761.416 483.126,762.25 482.5,763C 474.5,765 466.5,765 458.5,763C 457.874,762.25 457.374,761.416 457,760.5C 456.964,727.794 456.297,695.127 455,662.5C 450.647,651.146 442.313,645.813 430,646.5C 419.37,646.265 410.037,649.598 402,656.5C 402.639,691.459 402.639,726.459 402,761.5C 401.5,762 401,762.5 400.5,763C 393.274,764.594 385.94,764.928 378.5,764C 377.584,763.626 376.75,763.126 376,762.5C 374.688,730.227 374.021,697.894 374,665.5C 370.703,651.875 362.037,645.542 348,646.5C 338.222,646.537 329.222,649.204 321,654.5C 320.667,690.167 320.333,725.833 320,761.5C 319.228,762.849 318.061,763.682 316.5,764C 310.167,764.667 303.833,764.667 297.5,764C 294.21,762.702 292.71,760.202 293,756.5C 292.833,738 292.667,719.5 292.5,701C 292.369,680.465 292.869,659.965 294,639.5C 294.792,637.413 295.959,635.579 297.5,634C 312.639,624.674 328.972,619.508 346.5,618.5 Z"/></g>
<g><path style="opacity:0.976" fill="#fdfdfd" d="M 590.5,766.5 C 582.167,766.5 573.833,766.5 565.5,766.5C 538.299,761.133 521.799,744.799 516,717.5C 514.516,703.531 514.183,689.531 515,675.5C 520.128,639.084 541.128,620.084 578,618.5C 613.095,619.607 634.095,637.274 641,671.5C 641.667,685.5 641.667,699.5 641,713.5C 636.218,742.78 619.384,760.447 590.5,766.5 Z M 569.5,646.5 C 592.353,643.229 606.853,652.562 613,674.5C 615.382,689.327 614.716,703.994 611,718.5C 602.785,735.372 589.285,742.205 570.5,739C 554.719,734.882 545.552,724.715 543,708.5C 541.864,695.049 542.53,681.716 545,668.5C 549.618,657.124 557.785,649.79 569.5,646.5 Z"/></g>
<g><path style="opacity:0.975" fill="#fdfdfd" d="M 961.5,766.5 C 952.833,766.5 944.167,766.5 935.5,766.5C 908.402,760.567 892.235,743.9 887,716.5C 884.921,699.641 885.087,682.808 887.5,666C 892.371,644.129 905.371,629.462 926.5,622C 949.043,615.738 970.043,619.072 989.5,632C 998.533,639.698 1004.2,649.365 1006.5,661C 1006.72,664.235 1005.38,666.568 1002.5,668C 996.428,670.807 990.095,672.141 983.5,672C 975.705,651.765 961.038,643.432 939.5,647C 923.661,651.51 915.161,662.01 914,678.5C 913.162,690.539 913.496,702.539 915,714.5C 919.895,731.201 931.062,739.534 948.5,739.5C 959.117,740.02 967.95,736.353 975,728.5C 977.707,723.584 980.541,718.751 983.5,714C 991.759,713.531 999.259,715.697 1006,720.5C 1005.07,736.836 997.575,749.336 983.5,758C 976.393,761.752 969.06,764.585 961.5,766.5 Z"/></g>
<g><path style="opacity:0.977" fill="#fefefe" d="M 1105.5,766.5 C 1097.17,766.5 1088.83,766.5 1080.5,766.5C 1050.28,760.103 1033.44,741.436 1030,710.5C 1029.33,698.5 1029.33,686.5 1030,674.5C 1035.56,638.61 1056.56,619.944 1093,618.5C 1129.01,619.848 1150.01,638.181 1156,673.5C 1156.67,686.5 1156.67,699.5 1156,712.5C 1151.65,742.345 1134.82,760.345 1105.5,766.5 Z M 1084.5,646.5 C 1107.35,643.229 1121.85,652.562 1128,674.5C 1130.23,689.311 1129.56,703.977 1126,718.5C 1117.56,734.971 1104.06,741.805 1085.5,739C 1069.43,735.602 1060.27,725.768 1058,709.5C 1057.33,698.5 1057.33,687.5 1058,676.5C 1060.38,660.628 1069.21,650.628 1084.5,646.5 Z"/></g>
<g><path style="opacity:0.974" fill="#fefefe" d="M 1378.5,657.5 C 1378.5,692.167 1378.5,726.833 1378.5,761.5C 1374.43,763.961 1369.93,764.961 1365,764.5C 1362.17,764.333 1359.33,764.167 1356.5,764C 1354.67,763.727 1353.17,762.893 1352,761.5C 1351.67,731.5 1351.33,701.5 1351,671.5C 1351.08,660.469 1346.25,652.636 1336.5,648C 1321.24,643.979 1307.58,646.979 1295.5,657C 1296.27,659.405 1296.77,661.905 1297,664.5C 1297.67,696.167 1297.67,727.833 1297,759.5C 1296.89,761.848 1295.72,763.348 1293.5,764C 1286.83,764.667 1280.17,764.667 1273.5,764C 1272.07,763.535 1270.9,762.701 1270,761.5C 1269.67,730.833 1269.33,700.167 1269,669.5C 1268.61,657.193 1262.44,649.693 1250.5,647C 1238.01,645.165 1226.51,647.665 1216,654.5C 1215.67,689.833 1215.33,725.167 1215,760.5C 1214.63,761.416 1214.13,762.25 1213.5,763C 1206.27,764.594 1198.94,764.928 1191.5,764C 1189.67,763.5 1188.5,762.333 1188,760.5C 1187.83,740.667 1187.67,720.833 1187.5,701C 1187.35,680.105 1187.85,659.271 1189,638.5C 1191.22,634.612 1194.39,631.779 1198.5,630C 1222.23,617.719 1246.57,616.052 1271.5,625C 1275.64,627.639 1279.64,630.472 1283.5,633.5C 1306.39,617.92 1330.73,615.086 1356.5,625C 1368.7,632.571 1376.03,643.404 1378.5,657.5 Z"/></g>
<g><path style="opacity:0.957" fill="#fefefe" d="M 830.5,621.5 C 837.175,621.334 843.842,621.5 850.5,622C 851.931,622.465 853.097,623.299 854,624.5C 854.667,669.833 854.667,715.167 854,760.5C 853.5,762.333 852.333,763.5 850.5,764C 843.833,764.667 837.167,764.667 830.5,764C 828.277,763.348 827.11,761.848 827,759.5C 826.333,715.167 826.333,670.833 827,626.5C 827.257,624.093 828.424,622.427 830.5,621.5 Z"/></g>
</svg>
